<?xml version="1.0" encoding="UTF-8"?>
<svg xmlns="http://www.w3.org/2000/svg" width="752" height="179" viewBox="0 0 752 179" role="img" aria-label="VIA Odontología integral logo">
  <title>VIA Odontología integral</title>
  <path d="M713,125L710,128L710,131L711,132L712,132L712,128L715,125L716,125L717,124L719,124L720,125L721,125L722,126L723,126L724,127L724,129L725,130L722,133L720,133L719,134L716,134L715,135L713,135L712,136L711,136L710,137L709,137L709,138L708,139L708,140L707,141L707,145L709,147L709,148L710,148L711,149L712,149L713,150L719,150L720,149L722,149L724,147L725,148L725,150L726,149L730,149L730,147L729,146L729,130L728,129L728,128L727,127L727,126L726,126L725,125L724,125L723,124L715,124L714,125ZM724,133L725,134L725,145L722,148L720,148L719,149L716,149L712,145L712,139L715,136L716,136L717,135L719,135L720,134L722,134L723,133ZM701,124L694,124L692,126L691,126L690,125L690,124L689,124L688,125L684,125L685,126L685,128L686,129L686,150L689,150L690,149L690,129L694,125L696,125L697,124L698,124L699,125L700,125L703,128L703,132L704,132L705,131L705,128L704,127L704,126L703,126ZM661,124L660,125L659,125L656,128L656,129L655,130L655,137L656,138L656,140L655,141L655,145L658,148L656,150L655,150L654,151L654,156L657,159L658,159L659,160L662,160L663,161L672,161L673,160L675,160L676,159L677,159L679,157L679,156L680,155L680,149L677,146L676,146L675,145L672,145L671,144L668,144L667,143L668,142L670,142L671,141L672,141L675,138L675,136L676,135L676,131L675,130L675,129L674,128L674,127L673,126L674,125L676,125L678,127L678,128L679,129L680,128L680,125L679,124L673,124L672,125L670,125L669,124ZM658,152L659,151L659,149L660,148L662,148L663,149L674,149L675,150L676,150L679,153L679,154L678,155L678,156L675,159L673,159L672,160L664,160L663,159L662,159L659,156L659,155L658,154ZM656,141L657,140L658,141L659,141L660,142L662,142L663,143L662,144L658,144L656,142ZM665,124L666,125L668,125L669,126L669,127L670,128L670,129L671,130L671,137L670,138L670,139L667,142L664,142L660,138L660,128L663,125L664,125ZM631,126L628,129L628,130L627,131L627,133L626,134L626,140L627,141L627,143L628,144L628,145L631,148L632,148L633,149L635,149L636,150L643,150L644,149L646,149L650,145L650,144L649,144L649,145L646,148L645,148L644,149L637,149L636,148L635,148L633,146L633,145L632,144L632,142L631,141L631,138L632,137L651,137L651,131L650,130L650,129L646,125L645,125L644,124L635,124L634,125L633,125L632,126ZM631,132L632,131L632,130L633,129L633,128L636,125L638,125L639,124L640,124L641,125L643,125L644,126L644,127L645,128L645,129L646,130L646,133L647,134L647,135L646,136L632,136L631,135ZM581,125L582,126L582,128L583,129L583,150L586,150L587,149L587,129L590,126L591,126L592,125L599,125L602,128L602,149L603,150L606,150L607,149L607,132L606,131L606,129L605,128L605,127L604,126L603,126L602,125L601,125L600,124L592,124L591,125L590,125L588,127L587,126L587,124L586,124L585,125ZM576,124L575,124L574,125L570,125L571,126L571,128L572,129L572,150L575,150L576,149ZM533,125L530,128L530,131L531,132L532,132L532,128L535,125L536,125L537,124L539,124L540,125L541,125L544,128L544,129L545,130L542,133L540,133L539,134L537,134L536,135L533,135L532,136L531,136L530,137L529,137L528,138L528,140L527,141L527,145L528,146L528,147L529,148L530,148L531,149L532,149L533,150L539,150L540,149L542,149L544,147L545,148L545,150L546,149L550,149L550,147L549,146L549,130L548,129L548,128L547,127L547,126L546,126L545,125L544,125L543,124L535,124L534,125ZM544,133L545,134L545,145L542,148L540,148L539,149L536,149L535,148L534,148L533,147L533,146L532,145L532,139L535,136L536,136L537,135L539,135L540,134L542,134L543,133ZM523,124L522,124L521,125L517,125L517,126L518,127L518,128L519,129L519,150L522,150L523,149ZM494,124L493,125L492,125L489,128L489,129L488,130L488,137L489,138L489,140L488,141L488,145L491,148L489,150L488,150L487,151L487,156L490,159L491,159L492,160L495,160L496,161L505,161L506,160L508,160L509,159L510,159L512,157L512,156L513,155L513,149L510,146L509,146L508,145L504,145L503,144L501,144L500,143L501,142L503,142L504,141L505,141L508,138L508,136L509,135L509,131L508,130L508,129L507,128L507,127L506,126L507,125L509,125L511,127L511,128L513,128L513,125L512,124L506,124L505,125L503,125L502,124ZM491,152L492,151L492,149L493,148L496,148L497,149L507,149L508,150L509,150L512,153L512,154L511,155L511,156L508,159L507,159L506,160L497,160L496,159L495,159L492,156L492,155L491,154ZM489,141L490,140L491,141L492,141L493,142L495,142L496,143L495,144L491,144L489,142ZM498,124L499,125L500,125L503,128L503,129L504,130L504,137L503,138L503,139L500,142L497,142L493,138L493,128L496,125L497,125ZM466,124L465,125L464,125L463,126L462,126L459,129L459,130L458,131L458,133L457,134L457,140L458,141L458,143L459,144L459,145L462,148L463,148L464,149L466,149L467,150L475,150L476,149L477,149L478,148L479,148L482,145L482,144L483,143L483,142L484,141L484,133L483,132L483,130L479,126L478,126L477,125L476,125L475,124ZM471,124L472,125L474,125L478,129L478,130L479,131L479,142L478,143L478,145L474,149L468,149L467,148L466,148L464,146L464,145L463,144L463,142L462,141L462,132L463,131L463,130L464,129L464,128L467,125L470,125ZM425,124L424,125L423,125L422,126L421,126L418,129L418,130L417,131L417,133L416,134L416,140L417,141L417,143L418,144L418,145L421,148L422,148L423,149L425,149L426,150L434,150L435,149L436,149L437,148L438,148L442,144L442,142L443,141L443,133L442,132L442,130L438,126L437,126L436,125L435,125L434,124ZM429,124L430,124L431,125L433,125L437,129L437,130L438,131L438,142L437,143L437,145L433,149L427,149L426,148L425,148L424,147L424,146L422,144L422,142L421,141L421,132L422,131L422,130L423,129L423,128L425,126L426,126L427,125L428,125ZM372,125L373,126L373,128L374,129L374,150L377,150L378,149L378,129L381,126L382,126L383,125L390,125L393,128L393,149L394,150L397,150L398,149L398,132L397,131L397,129L395,127L395,126L394,126L393,125L392,125L391,124L383,124L382,125L381,125L379,127L378,126L378,124L377,124L376,125ZM350,124L349,125L348,125L347,126L346,126L343,129L343,130L342,131L342,133L341,134L341,140L342,141L342,143L343,144L343,145L346,148L347,148L348,149L350,149L351,150L359,150L360,149L361,149L362,148L363,148L366,145L366,144L367,143L367,142L368,141L368,133L367,132L367,130L363,126L362,126L361,125L360,125L359,124ZM355,124L356,125L358,125L362,129L362,130L363,131L363,142L362,143L362,145L358,149L352,149L351,148L350,148L349,147L349,146L347,144L347,143L346,142L346,132L347,131L347,130L348,129L348,128L350,126L351,126L352,125L354,125ZM618,116L617,117L613,117L613,118L614,119L614,120L615,121L615,123L614,124L610,124L610,125L614,125L615,126L615,146L616,147L616,148L617,149L619,149L620,150L622,150L622,149L621,149L619,147L619,126L620,125L624,125L623,124L620,124L619,123L619,116ZM408,116L407,117L403,117L404,118L404,120L405,121L405,123L404,124L400,124L400,125L404,125L405,126L405,147L407,149L409,149L410,150L412,150L412,149L411,149L409,147L409,126L410,125L414,125L413,124L410,124L409,123L409,116ZM528,113L525,113L524,114L524,115L523,116L523,117L521,119L521,121L525,117L526,117L528,115ZM572,112L571,113L571,115L573,117L575,117L576,116L576,112ZM447,112L448,113L448,115L449,116L449,150L452,150L453,149L453,112ZM286,112L285,113L283,113L282,114L281,114L280,115L279,115L274,120L274,121L273,122L273,124L272,125L272,137L273,138L273,140L274,141L274,142L276,144L276,145L277,145L280,148L281,148L282,149L284,149L285,150L295,150L296,149L298,149L299,148L300,148L301,147L302,147L305,144L305,143L307,141L307,140L308,139L308,136L309,135L309,127L308,126L308,123L307,122L307,121L305,119L305,118L303,116L302,116L300,114L299,114L298,113L296,113L295,112ZM287,113L293,113L294,114L296,114L301,119L301,120L302,121L302,122L303,123L303,126L304,127L304,135L303,136L303,139L302,140L302,141L301,142L301,143L296,148L295,148L294,149L286,149L284,147L283,147L280,144L280,143L278,141L278,139L277,138L277,124L278,123L278,122L279,121L279,120L280,119L280,118L282,116L283,116L285,114L286,114ZM738,111L737,112L734,112L734,115L735,116L735,150L738,150L739,149L739,112ZM337,111L336,112L332,112L332,114L333,115L333,125L332,126L330,124L322,124L321,125L320,125L319,126L318,126L316,128L316,129L314,131L314,133L313,134L313,140L314,141L314,143L316,145L316,146L318,148L319,148L320,149L321,149L322,150L329,150L330,149L331,149L332,148L333,149L338,149L339,148L337,146ZM326,124L327,125L330,125L333,128L333,146L331,148L330,148L329,149L324,149L319,144L319,143L318,142L318,132L319,131L319,130L320,129L320,128L322,126L323,126L324,125L325,125ZM373,18L376,21L376,22L377,23L377,25L376,26L376,28L375,29L375,30L374,31L374,33L373,34L373,35L372,36L372,37L371,38L371,40L370,41L370,42L369,43L369,44L368,45L368,47L367,48L367,49L366,50L366,52L365,53L365,54L364,55L364,56L363,57L363,59L362,60L362,61L361,62L361,63L360,64L360,66L359,67L359,68L358,69L358,70L357,71L357,73L356,74L356,75L355,76L355,78L354,79L354,80L353,81L353,82L352,83L352,85L353,85L354,84L354,83L355,82L355,81L356,80L356,78L357,77L357,76L358,75L358,73L359,72L359,71L360,70L360,69L361,68L361,66L363,64L394,64L396,66L396,67L397,68L397,69L398,70L398,72L399,73L399,74L400,75L400,76L401,77L401,79L402,80L402,81L403,82L403,83L404,84L404,85L412,85L412,84L411,83L411,82L410,81L410,80L409,79L409,77L408,76L408,75L407,74L407,73L406,72L406,70L405,69L405,68L404,67L404,66L403,65L403,63L402,62L402,61L401,60L401,59L400,58L400,56L399,55L399,54L398,53L398,52L397,51L397,49L396,48L396,47L395,46L395,45L394,44L394,42L393,41L393,40L392,39L392,38L391,37L391,35L390,34L390,33L389,32L389,31L388,30L388,28L387,27L387,26L386,25L386,24L385,23L385,21L384,20L384,19L383,18ZM379,27L380,28L380,30L381,31L381,32L382,33L382,34L383,35L383,37L384,38L384,39L385,40L385,41L386,42L386,44L387,45L387,46L388,47L388,48L389,49L389,51L390,52L390,53L391,54L391,55L392,56L392,58L393,59L393,60L394,61L393,62L365,62L364,61L364,59L365,58L365,57L366,56L366,55L367,54L367,52L368,51L368,50L369,49L369,47L370,46L370,45L371,44L371,43L372,42L372,40L373,39L373,38L374,37L374,36L375,35L375,33L376,32L376,31L377,30L377,29ZM337,18L336,19L331,19L331,20L333,22L333,25L334,26L334,85L341,85L341,18ZM258,18L259,19L260,19L262,21L262,22L264,24L264,25L265,26L265,28L266,29L266,30L267,31L267,32L268,33L268,35L269,36L269,37L270,38L270,39L271,40L271,42L272,43L272,44L273,45L273,46L274,47L274,49L275,50L275,51L276,52L276,53L277,54L277,56L278,57L278,58L279,59L279,60L280,61L280,63L281,64L281,65L282,66L282,67L283,68L283,70L284,71L284,72L285,73L285,74L286,75L286,77L287,78L287,79L288,80L288,81L289,82L289,84L290,85L293,85L293,84L294,83L294,82L295,81L295,79L296,78L296,77L297,76L297,75L298,74L298,72L299,71L299,70L300,69L300,68L301,67L301,65L302,64L302,63L303,62L303,61L304,60L304,58L305,57L305,56L306,55L306,53L307,52L307,51L308,50L308,49L309,48L309,46L310,45L310,44L311,43L311,42L312,41L312,39L313,38L313,37L314,36L314,34L315,33L315,32L316,31L316,30L317,29L317,27L318,26L318,25L319,24L319,23L320,22L320,20L321,19L321,18L319,18L319,19L318,20L318,22L317,23L317,24L316,25L316,27L315,28L315,29L314,30L314,31L313,32L313,34L312,35L312,36L311,37L311,38L310,39L310,41L309,42L309,43L308,44L308,46L307,47L307,48L306,49L306,50L305,51L305,53L304,54L304,55L303,56L303,57L302,58L302,60L301,61L301,62L300,63L300,65L299,66L299,67L298,68L298,69L297,70L297,72L296,73L296,74L295,75L294,75L293,74L293,73L292,72L292,71L291,70L291,68L290,67L290,66L289,65L289,64L288,63L288,61L287,60L287,59L286,58L286,57L285,56L285,54L284,53L284,52L283,51L283,50L282,49L282,47L281,46L281,45L280,44L280,43L279,42L279,40L278,39L278,38L277,37L277,36L276,35L276,33L275,32L275,31L274,30L274,29L273,28L273,26L272,25L272,24L271,23L271,22L270,21L270,19L269,18ZM120,12L121,13L122,13L125,16L126,16L135,25L135,26L139,30L140,33L142,35L142,36L143,37L143,38L144,39L144,40L145,41L145,42L147,45L147,47L148,48L148,49L150,52L150,54L151,55L151,56L152,57L152,58L154,61L154,63L155,64L155,65L157,68L157,70L158,71L158,72L160,75L160,77L161,78L161,79L163,82L163,84L164,85L164,86L166,89L166,91L167,92L167,93L169,96L169,98L170,99L170,100L172,103L172,105L173,106L173,107L174,108L174,109L176,112L176,114L178,117L178,119L179,120L179,121L180,122L180,123L182,126L182,128L183,129L183,130L185,133L185,135L186,136L186,137L188,140L188,142L189,143L189,144L191,147L191,149L192,150L192,151L194,154L194,156L195,157L195,158L197,161L197,163L198,164L198,165L199,166L215,166L215,164L214,163L214,161L213,160L213,159L212,158L212,157L210,154L210,152L209,151L209,150L208,149L208,148L206,145L206,143L205,142L205,141L204,140L204,139L202,136L202,134L201,133L201,132L199,129L199,127L198,126L198,125L197,124L197,123L195,120L195,118L194,117L194,116L193,115L193,114L191,111L191,109L190,108L190,107L189,106L189,105L187,102L187,100L186,99L186,98L185,97L185,96L183,93L183,91L182,90L182,89L180,86L180,84L179,83L179,82L178,81L178,80L176,77L176,75L175,74L175,73L174,72L174,71L172,68L172,66L171,65L171,64L170,63L170,62L168,59L168,57L167,56L167,55L166,54L166,53L164,50L164,48L163,47L163,46L162,45L162,44L160,41L160,39L159,38L159,37L157,34L157,32L156,31L156,30L155,29L155,28L153,25L153,23L152,22L152,21L151,20L151,19L149,16L149,14L148,13L148,12ZM12,12L12,13L16,15L28,27L34,36L37,42L37,44L41,51L41,53L44,58L44,60L47,65L47,67L50,72L50,74L53,79L53,81L56,86L56,88L59,93L59,95L63,102L63,104L69,116L69,118L72,123L72,125L75,130L75,132L78,137L78,139L82,146L82,148L84,151L84,153L88,160L88,162L90,166L107,166L111,158L111,156L114,149L114,146L115,145L115,141L116,140L116,125L115,124L115,121L112,114L104,102L104,100L103,99L103,92L104,91L104,89L110,83L112,83L113,82L119,82L120,83L122,83L129,86L137,86L143,83L148,79L150,79L151,78L158,78L159,79L158,78L149,78L143,81L141,83L137,84L136,85L132,85L131,84L126,83L121,80L113,79L112,80L109,80L103,84L99,92L99,101L102,107L102,109L104,111L109,121L109,124L110,125L110,134L109,135L109,140L108,141L107,147L103,155L99,148L99,146L95,139L95,137L91,130L91,128L87,121L87,119L83,112L83,110L79,103L79,101L75,94L75,92L71,85L71,83L67,76L67,74L63,67L63,65L59,58L59,56L55,49L55,47L51,40L51,38L47,31L47,29L43,22L43,20L39,12Z" fill="#5f6b6e" fill-rule="evenodd"/>
</svg>
